<?xml version="1.0" standalone="no"?>
<!DOCTYPE svg PUBLIC "-//W3C//DTD SVG 20010904//EN"
 "http://www.w3.org/TR/2001/REC-SVG-20010904/DTD/svg10.dtd">
<svg version="1.0" xmlns="http://www.w3.org/2000/svg"
 width="512.000000pt" height="512.000000pt" viewBox="0 0 512.000000 512.000000"
 preserveAspectRatio="xMidYMid meet">

<g transform="translate(0.000000,512.000000) scale(0.100000,-0.100000)"
fill="#000000" stroke="none">
<path d="M4390 5113 c-14 -3 -783 -164 -1710 -360 -927 -195 -1732 -364 -1789
-374 -396 -76 -703 -335 -829 -699 -45 -132 -57 -209 -56 -370 2 -170 26 -282
93 -424 71 -152 123 -218 373 -471 150 -152 243 -254 253 -278 13 -30 15 -97
15 -416 0 -435 6 -488 69 -616 75 -152 220 -277 385 -332 l81 -27 425 -6 c333
-4 430 -8 450 -19 14 -7 126 -113 250 -236 255 -251 323 -306 465 -376 515
-252 1152 -41 1408 466 46 92 80 188 97 272 6 32 178 850 382 1818 365 1738
370 1761 365 1851 -9 164 -71 298 -194 421 -118 117 -282 184 -443 181 -36 0
-76 -3 -90 -5z m-1620 -2038 l-1595 -1595 -6 347 c-6 380 -8 391 -71 518 -45
88 -70 117 -329 380 -224 227 -238 245 -277 325 -48 102 -62 163 -62 278 0
108 18 182 72 292 32 67 58 102 118 162 119 117 183 144 495 208 138 28 918
192 1735 365 817 172 1492 314 1500 314 8 1 -703 -717 -1580 -1594z m1545
-421 c-196 -935 -367 -1736 -381 -1781 -45 -152 -162 -293 -305 -368 -185 -97
-400 -100 -589 -7 -67 33 -101 62 -330 287 -274 270 -329 312 -465 356 -66 22
-88 23 -419 27 l-350 3 1594 1594 c877 877 1596 1593 1598 1591 1 -2 -157
-768 -353 -1702z"/>
</g>
</svg>
